G04 #@! TF.FileFunction,Copper,L1,Top,Signal*
%FSLAX46Y46*%
G04 Gerber Fmt 4.6, Leading zero omitted, Abs format (unit mm)*
G04 Created by KiCad (PCBNEW 4.0.7) date 10/01/18 00:26:36*
%MOMM*%
%LPD*%
G01*
G04 APERTURE LIST*
%ADD10C,0.100000*%
%ADD11R,2.000000X2.000000*%
%ADD12O,2.000000X2.000000*%
%ADD13C,2.000000*%
%ADD14R,1.600200X1.803400*%
%ADD15R,1.803400X1.600200*%
%ADD16R,1.524000X1.524000*%
%ADD17C,1.524000*%
%ADD18R,2.200000X1.750000*%
%ADD19O,2.200000X1.750000*%
%ADD20C,2.500000*%
%ADD21R,1.498600X1.498600*%
%ADD22R,0.599440X1.000760*%
%ADD23O,3.000000X2.000000*%
%ADD24R,2.540000X1.000000*%
%ADD25R,1.600000X0.550000*%
%ADD26R,0.550000X1.600000*%
%ADD27R,1.000000X2.400000*%
%ADD28R,3.800000X2.400000*%
%ADD29C,1.998980*%
%ADD30C,3.000000*%
%ADD31C,0.500000*%
%ADD32C,1.000000*%
G04 APERTURE END LIST*
D10*
D11*
X181840000Y-87900000D03*
D12*
X179300000Y-87900000D03*
X176760000Y-87900000D03*
D11*
X181840000Y-85000000D03*
D12*
X179300000Y-85000000D03*
X176760000Y-85000000D03*
D11*
X181840000Y-76300000D03*
D12*
X179300000Y-76300000D03*
X176760000Y-76300000D03*
D11*
X181840000Y-73400000D03*
D12*
X179300000Y-73400000D03*
X176760000Y-73400000D03*
D11*
X181840000Y-90800000D03*
D12*
X179300000Y-90800000D03*
X176760000Y-90800000D03*
D11*
X181840000Y-79200000D03*
D12*
X179300000Y-79200000D03*
X176760000Y-79200000D03*
D11*
X181840000Y-82100000D03*
D12*
X179300000Y-82100000D03*
X176760000Y-82100000D03*
D11*
X181840000Y-70500000D03*
D12*
X179300000Y-70500000D03*
X176760000Y-70500000D03*
D13*
X115200000Y-97600000D03*
X122800000Y-97600000D03*
D14*
X132797000Y-74200000D03*
X130003000Y-74200000D03*
D15*
X127700000Y-78803000D03*
X127700000Y-81597000D03*
D16*
X114100000Y-79500000D03*
D17*
X114100000Y-77500000D03*
D14*
X181097000Y-96100000D03*
X178303000Y-96100000D03*
X104703000Y-59400000D03*
X107497000Y-59400000D03*
X124597000Y-59400000D03*
X121803000Y-59400000D03*
D16*
X113900000Y-73500000D03*
D17*
X113900000Y-71500000D03*
D16*
X120000000Y-79500000D03*
D17*
X120000000Y-77500000D03*
D14*
X122097000Y-84800000D03*
X119303000Y-84800000D03*
D16*
X120000000Y-73500000D03*
D17*
X120000000Y-71500000D03*
D18*
X98100000Y-86810000D03*
D19*
X98100000Y-84270000D03*
X98100000Y-81730000D03*
X98100000Y-79190000D03*
D11*
X97930000Y-68960000D03*
D13*
X100470000Y-68960000D03*
X97930000Y-71500000D03*
X100470000Y-71500000D03*
X97930000Y-74040000D03*
X100470000Y-74040000D03*
D20*
X134260000Y-100200000D03*
X139340000Y-100200000D03*
X151260000Y-100200000D03*
X156340000Y-100200000D03*
X161860000Y-100200000D03*
X166940000Y-100200000D03*
D21*
X142952480Y-88600000D03*
X146447520Y-88600000D03*
D22*
X114247500Y-94356640D03*
X115200000Y-92243360D03*
X116152500Y-94356640D03*
D14*
X106697000Y-89100000D03*
X103903000Y-89100000D03*
X127671285Y-90855001D03*
X124877285Y-90855001D03*
X127671285Y-87785001D03*
X124877285Y-87785001D03*
X127671285Y-84715001D03*
X124877285Y-84715001D03*
D15*
X109000000Y-98797000D03*
X109000000Y-96003000D03*
D14*
X109847000Y-70950000D03*
X107053000Y-70950000D03*
X142603000Y-76400000D03*
X145397000Y-76400000D03*
X175697000Y-96100000D03*
X172903000Y-96100000D03*
D23*
X130250000Y-63050000D03*
X130250000Y-58550000D03*
X136750000Y-58550000D03*
X136750000Y-63050000D03*
D11*
X176900000Y-62100000D03*
D12*
X169280000Y-62100000D03*
X176900000Y-59560000D03*
X169280000Y-59560000D03*
D24*
X155600000Y-58550000D03*
X145600000Y-58550000D03*
X155600000Y-63050000D03*
X145600000Y-63050000D03*
D25*
X151750000Y-78200000D03*
X151750000Y-79000000D03*
X151750000Y-79800000D03*
X151750000Y-80600000D03*
X151750000Y-81400000D03*
X151750000Y-82200000D03*
X151750000Y-83000000D03*
X151750000Y-83800000D03*
D26*
X153200000Y-85250000D03*
X154000000Y-85250000D03*
X154800000Y-85250000D03*
X155600000Y-85250000D03*
X156400000Y-85250000D03*
X157200000Y-85250000D03*
X158000000Y-85250000D03*
X158800000Y-85250000D03*
D25*
X160250000Y-83800000D03*
X160250000Y-83000000D03*
X160250000Y-82200000D03*
X160250000Y-81400000D03*
X160250000Y-80600000D03*
X160250000Y-79800000D03*
X160250000Y-79000000D03*
X160250000Y-78200000D03*
D26*
X158800000Y-76750000D03*
X158000000Y-76750000D03*
X157200000Y-76750000D03*
X156400000Y-76750000D03*
X155600000Y-76750000D03*
X154800000Y-76750000D03*
X154000000Y-76750000D03*
X153200000Y-76750000D03*
D27*
X134700000Y-87100000D03*
X137000000Y-87100000D03*
X139300000Y-87100000D03*
D28*
X137000000Y-80650000D03*
D29*
X112160000Y-59400000D03*
X117240000Y-59400000D03*
D30*
X186700000Y-58300000D03*
X93250000Y-58250000D03*
X93250000Y-101750000D03*
X186800000Y-101600000D03*
D31*
X115200000Y-92243360D02*
X115200000Y-97600000D01*
X139340000Y-100200000D02*
X139340000Y-87140000D01*
X139340000Y-87140000D02*
X139300000Y-87100000D01*
D32*
X136750000Y-58550000D02*
X145600000Y-58550000D01*
D31*
X145600000Y-58550000D02*
X155600000Y-58550000D01*
X134260000Y-100200000D02*
X134260000Y-90540000D01*
X134700000Y-90100000D02*
X134700000Y-87100000D01*
X134260000Y-90540000D02*
X134700000Y-90100000D01*
X134700000Y-87100000D02*
X134700000Y-83300000D01*
X149400000Y-79800000D02*
X151750000Y-79800000D01*
X148400000Y-78800000D02*
X149400000Y-79800000D01*
X134400000Y-78800000D02*
X148400000Y-78800000D01*
X133800000Y-79400000D02*
X134400000Y-78800000D01*
X133800000Y-82400000D02*
X133800000Y-79400000D01*
X134700000Y-83300000D02*
X133800000Y-82400000D01*
X151750000Y-79800000D02*
X155600000Y-79800000D01*
X155600000Y-79800000D02*
X156400000Y-80600000D01*
X151750000Y-81400000D02*
X155600000Y-81400000D01*
X156400000Y-80600000D02*
X160250000Y-80600000D01*
X155600000Y-81400000D02*
X156400000Y-80600000D01*
X137000000Y-87100000D02*
X137000000Y-102200000D01*
X134000000Y-76400000D02*
X142603000Y-76400000D01*
X131600000Y-78800000D02*
X134000000Y-76400000D01*
X131600000Y-101800000D02*
X131600000Y-78800000D01*
X132800000Y-103000000D02*
X131600000Y-101800000D01*
X136200000Y-103000000D02*
X132800000Y-103000000D01*
X137000000Y-102200000D02*
X136200000Y-103000000D01*
X151750000Y-80600000D02*
X137050000Y-80600000D01*
X137050000Y-80600000D02*
X137000000Y-80650000D01*
D32*
X137000000Y-87100000D02*
X137000000Y-80650000D01*
X107497000Y-59400000D02*
X112160000Y-59400000D01*
X117240000Y-59400000D02*
X121803000Y-59400000D01*
D31*
X166940000Y-100200000D02*
X166940000Y-92340000D01*
X158000000Y-86600000D02*
X158000000Y-85250000D01*
X158800000Y-87400000D02*
X158000000Y-86600000D01*
X162000000Y-87400000D02*
X158800000Y-87400000D01*
X166940000Y-92340000D02*
X162000000Y-87400000D01*
X155600000Y-63050000D02*
X145600000Y-63050000D01*
X155600000Y-76750000D02*
X155600000Y-63800000D01*
X155600000Y-63800000D02*
X155600000Y-63050000D01*
X176760000Y-87900000D02*
X174900000Y-87900000D01*
X166800000Y-79800000D02*
X160250000Y-79800000D01*
X174900000Y-87900000D02*
X166800000Y-79800000D01*
X176760000Y-85000000D02*
X174800000Y-85000000D01*
X168800000Y-79000000D02*
X160250000Y-79000000D01*
X174800000Y-85000000D02*
X168800000Y-79000000D01*
X156400000Y-85250000D02*
X156400000Y-100140000D01*
X156400000Y-100140000D02*
X156340000Y-100200000D01*
X151260000Y-100200000D02*
X151260000Y-92140000D01*
X154000000Y-89400000D02*
X154000000Y-85250000D01*
X151260000Y-92140000D02*
X154000000Y-89400000D01*
X158000000Y-76750000D02*
X158000000Y-75200000D01*
X173900000Y-76300000D02*
X176760000Y-76300000D01*
X172400000Y-74800000D02*
X173900000Y-76300000D01*
X158400000Y-74800000D02*
X172400000Y-74800000D01*
X158000000Y-75200000D02*
X158400000Y-74800000D01*
X157200000Y-76750000D02*
X157200000Y-74200000D01*
X158000000Y-73400000D02*
X176760000Y-73400000D01*
X157200000Y-74200000D02*
X158000000Y-73400000D01*
X157200000Y-85250000D02*
X157200000Y-87400000D01*
X161860000Y-89860000D02*
X161860000Y-100200000D01*
X160800000Y-88800000D02*
X161860000Y-89860000D01*
X158600000Y-88800000D02*
X160800000Y-88800000D01*
X157200000Y-87400000D02*
X158600000Y-88800000D01*
X160250000Y-82200000D02*
X166000000Y-82200000D01*
X174600000Y-90800000D02*
X176760000Y-90800000D01*
X166000000Y-82200000D02*
X174600000Y-90800000D01*
X176760000Y-79200000D02*
X174400000Y-79200000D01*
X171950000Y-76750000D02*
X158800000Y-76750000D01*
X174400000Y-79200000D02*
X171950000Y-76750000D01*
X176760000Y-82100000D02*
X175500000Y-82100000D01*
X171600000Y-78200000D02*
X160250000Y-78200000D01*
X175500000Y-82100000D02*
X171600000Y-78200000D01*
X156400000Y-76750000D02*
X156400000Y-73000000D01*
X158900000Y-70500000D02*
X176760000Y-70500000D01*
X156400000Y-73000000D02*
X158900000Y-70500000D01*
X151750000Y-78200000D02*
X151750000Y-66650000D01*
X163800000Y-62100000D02*
X169280000Y-62100000D01*
X162900000Y-61200000D02*
X163800000Y-62100000D01*
X143900000Y-61200000D02*
X162900000Y-61200000D01*
X143100000Y-62000000D02*
X143900000Y-61200000D01*
X143100000Y-64000000D02*
X143100000Y-62000000D01*
X144200000Y-65100000D02*
X143100000Y-64000000D01*
X150200000Y-65100000D02*
X144200000Y-65100000D01*
X151750000Y-66650000D02*
X150200000Y-65100000D01*
X145397000Y-76400000D02*
X145397000Y-67797000D01*
X163200000Y-59200000D02*
X168920000Y-59200000D01*
X162300000Y-60100000D02*
X163200000Y-59200000D01*
X143100000Y-60100000D02*
X162300000Y-60100000D01*
X141900000Y-61300000D02*
X143100000Y-60100000D01*
X141900000Y-64900000D02*
X141900000Y-61300000D01*
X143500000Y-66500000D02*
X141900000Y-64900000D01*
X144100000Y-66500000D02*
X143500000Y-66500000D01*
X145397000Y-67797000D02*
X144100000Y-66500000D01*
X168920000Y-59200000D02*
X169280000Y-59560000D01*
X151750000Y-79000000D02*
X150200000Y-79000000D01*
X147600000Y-76400000D02*
X145397000Y-76400000D01*
X150200000Y-79000000D02*
X147600000Y-76400000D01*
M02*
